<?xml version="1.0" standalone="no"?>
<!DOCTYPE svg PUBLIC "-//W3C//DTD SVG 20010904//EN"
 "http://www.w3.org/TR/2001/REC-SVG-20010904/DTD/svg10.dtd">
<svg version="1.0" xmlns="http://www.w3.org/2000/svg"
 width="1000.000000pt" height="1000.000000pt" viewBox="0 0 1000.000000 1000.000000"
 preserveAspectRatio="xMidYMid meet">
<metadata>
Created by potrace 1.14, written by Peter Selinger 2001-2017
</metadata>
<g transform="translate(0.000000,1000.000000) scale(0.100000,-0.100000)"
fill="#000000" stroke="none">
<path d="M3735 8793 c-3 -15 -3 -549 1 -1188 4 -638 4 -1181 0 -1207 -14 -94
-90 -147 -210 -148 -128 0 -133 3 -401 256 -71 67 -139 131 -151 141 -18 15
-203 186 -268 248 -12 11 -44 40 -71 64 -28 24 -103 96 -168 159 -131 128
-112 123 -197 47 -25 -22 -112 -105 -195 -186 -337 -326 -374 -361 -413 -390
-23 -17 -42 -34 -42 -38 0 -4 13 -22 30 -41 30 -36 38 -60 20 -60 -17 0 -11
-19 11 -30 26 -14 36 -6 19 15 -7 8 -9 15 -5 15 13 0 245 -233 245 -246 0 -7
-8 -14 -17 -16 -16 -3 -16 -6 4 -23 16 -13 19 -22 12 -31 -5 -7 -6 -14 -2 -17
12 -8 40 16 45 38 5 19 5 19 13 1 5 -12 3 -21 -6 -26 -7 -5 -11 -12 -7 -15 4
-4 0 -25 -7 -46 -8 -22 -10 -37 -5 -34 6 3 10 13 10 21 0 17 21 19 38 2 17
-17 28 20 13 44 -23 36 -6 28 47 -24 51 -49 62 -68 42 -68 -5 0 -10 6 -10 13
0 7 -13 20 -29 30 -27 16 -29 16 -45 -2 -17 -18 -16 -21 14 -50 27 -25 32 -38
34 -80 1 -27 -2 -44 -6 -38 -11 18 -28 -38 -28 -94 0 -37 4 -49 15 -49 8 0 15
-7 15 -16 0 -8 -4 -12 -10 -9 -5 3 -10 2 -10 -4 0 -5 4 -12 9 -16 10 -5 31 54
31 87 0 20 -16 32 -23 18 -3 -6 -4 -5 -3 2 1 7 12 14 24 16 16 3 23 -3 27 -25
3 -15 14 -46 24 -68 12 -26 15 -47 10 -60 -4 -11 -8 -39 -8 -62 -1 -23 -6 -45
-11 -48 -11 -7 -2 -85 11 -100 12 -12 12 -55 0 -55 -5 0 -12 -7 -15 -16 -5
-14 -4 -15 8 -5 9 7 25 9 43 4 15 -4 36 -6 46 -4 29 4 19 -26 -13 -39 -20 -8
-34 -9 -43 -2 -6 5 -22 13 -34 16 -20 6 -21 4 -13 -29 5 -20 16 -45 26 -56 17
-19 17 -20 -3 -25 -12 -3 -20 -11 -17 -17 2 -7 -4 -22 -14 -34 -13 -17 -21
-20 -32 -13 -13 9 -12 12 4 25 21 16 11 21 -12 6 -18 -11 -19 -71 -1 -82 11
-7 9 -14 -13 -36 -25 -25 -27 -25 -21 -5 4 16 1 22 -12 22 -13 0 -16 -7 -13
-31 3 -28 -11 -45 -167 -195 -147 -142 -168 -166 -154 -177 18 -14 238 -219
378 -353 140 -134 180 -166 207 -162 13 2 79 57 156 133 73 71 204 198 290
282 87 85 173 160 193 168 28 12 100 15 376 15 l342 0 41 -24 c76 -45 71 38
70 -1108 l0 -1028 46 0 c73 0 125 39 375 280 127 123 342 328 361 345 6 6 96
91 199 190 103 99 197 185 208 192 12 7 40 12 61 13 42 0 74 -20 150 -94 87
-84 412 -394 437 -417 28 -25 282 -266 434 -411 98 -92 119 -102 205 -96 l45
3 5 1035 c5 1015 5 1036 25 1062 37 51 56 53 370 51 354 -3 382 -5 426 -42 31
-26 32 -29 16 -45 -12 -12 -15 -26 -10 -49 3 -18 9 -34 13 -37 10 -8 31 -90
34 -132 2 -22 8 -44 15 -51 6 -6 11 -26 11 -43 0 -18 5 -45 12 -61 6 -15 10
-33 9 -40 -1 -6 3 -14 9 -18 5 -3 10 -12 10 -18 0 -7 -4 -6 -11 3 -15 22 -2
-52 16 -86 7 -14 11 -32 9 -39 -3 -7 -1 -16 5 -20 6 -3 11 -20 11 -36 0 -17
-4 -28 -9 -25 -5 3 -9 -34 -9 -82 -1 -48 1 -81 4 -74 10 22 24 2 24 -34 0 -20
-7 -42 -15 -51 -30 -30 -3 -33 34 -4 21 17 41 28 45 24 3 -3 6 1 6 10 0 10 7
17 16 17 9 0 12 5 8 12 -5 7 -2 9 9 5 12 -4 14 -2 10 10 -5 12 -2 15 9 11 8
-4 22 1 30 10 8 10 30 30 49 46 19 16 80 74 136 128 69 66 109 98 125 98 35 0
88 37 185 130 49 47 171 163 271 259 100 95 182 176 182 180 0 13 -430 435
-650 636 -139 128 -170 170 -170 231 0 84 37 130 280 359 200 187 581 560 605
591 l25 32 -340 338 c-187 186 -340 344 -340 351 0 33 -28 16 -112 -69 -51
-52 -160 -159 -243 -238 -82 -79 -260 -253 -395 -385 -329 -322 -319 -315
-426 -327 -55 -6 -115 -6 -167 1 -77 9 -84 12 -119 50 -31 33 -38 48 -39 83
-1 24 -1 566 1 1206 2 1058 1 1165 -14 1187 -9 14 -24 25 -33 25 -16 0 -118
-63 -125 -77 -2 -5 -41 -44 -88 -88 -204 -192 -451 -427 -540 -511 -273 -261
-311 -284 -457 -284 -121 0 -150 18 -382 229 -46 42 -95 87 -110 100 -14 13
-91 85 -171 160 -79 75 -180 170 -225 211 -44 41 -113 107 -153 147 -109 108
-131 123 -184 123 -41 0 -46 -3 -53 -27z m1312 -1285 c58 -25 110 -72 515
-469 l118 -115 0 -87 c0 -47 5 -89 10 -92 11 -7 15 -2059 4 -2130 -6 -36 -26
-60 -200 -231 -223 -220 -255 -245 -322 -252 -80 -7 -114 18 -385 287 -136
135 -309 305 -384 376 -75 72 -146 147 -159 167 l-24 37 5 623 c9 1108 12
1258 31 1285 8 14 55 62 102 106 47 45 134 128 192 183 321 308 341 324 422
324 26 0 60 -5 75 -12z m-2977 -1488 c0 -5 -4 -10 -10 -10 -5 0 -10 5 -10 10
0 6 5 10 10 10 6 0 10 -4 10 -10z m63 -172 c-9 -15 -23 -8 -23 12 0 17 2 19
14 8 8 -7 12 -16 9 -20z m67 -628 c-12 -12 -24 -19 -27 -17 -2 3 5 15 17 27
12 12 24 19 27 17 2 -3 -5 -15 -17 -27z m-60 -55 c-7 -8 -17 -15 -22 -15 -11
0 14 29 26 30 5 0 3 -7 -4 -15z m5020 -535 c0 -5 -2 -10 -4 -10 -3 0 -8 5 -11
10 -3 6 -1 10 4 10 6 0 11 -4 11 -10z"/>
<path d="M1860 6240 c0 -5 7 -13 16 -18 9 -5 15 -12 15 -15 -3 -18 0 -21 8 -8
6 9 3 20 -7 32 -18 21 -32 25 -32 9z"/>
<path d="M2030 5905 c0 -8 5 -15 10 -15 6 0 10 7 10 15 0 8 -4 15 -10 15 -5 0
-10 -7 -10 -15z"/>
<path d="M2101 5434 c0 -11 3 -14 6 -6 3 7 2 16 -1 19 -3 4 -6 -2 -5 -13z"/>
<path d="M1945 5019 c-11 -17 -2 -18 19 -3 17 12 17 14 4 14 -9 0 -20 -5 -23
-11z"/>
<path d="M7226 3855 c4 -8 8 -15 10 -15 2 0 4 7 4 15 0 8 -4 15 -10 15 -5 0
-7 -7 -4 -15z"/>
<path d="M3150 1280 l0 -760 50 0 50 0 0 -45 0 -45 145 0 145 0 0 320 0 320
105 0 c108 0 115 3 95 41 -14 25 1 24 34 -2 40 -31 66 -91 152 -351 l78 -237
35 -3 c31 -3 36 -8 49 -46 l14 -42 149 0 c82 0 149 1 149 3 0 15 -183 545
-200 578 -13 24 -49 70 -81 101 -33 32 -59 61 -59 66 0 4 26 20 58 34 107 50
166 115 196 218 28 93 18 214 -26 307 -33 70 -186 218 -263 253 -97 45 -152
50 -527 50 l-348 0 0 -760z m728 484 c40 -27 65 -92 65 -164 -1 -75 -14 -114
-51 -153 -42 -44 -105 -57 -284 -57 l-158 0 0 55 0 55 45 0 45 0 0 110 0 110
150 0 150 0 0 30 c0 34 6 36 38 14z m113 -516 c10 -18 9 -20 -6 -15 -9 4 -19
7 -21 7 -2 0 -4 7 -4 15 0 22 18 18 31 -7z"/>
<path d="M4580 1280 l0 -760 45 0 45 0 0 -46 0 -46 398 5 c429 5 468 9 576 63
167 83 253 297 201 499 -21 79 -51 124 -148 219 -74 72 -175 136 -214 136 -20
0 -15 28 6 40 27 14 26 15 77 -32 l45 -41 44 43 c67 66 90 126 90 235 -1 124
-26 178 -138 289 -92 91 -155 127 -251 145 -36 7 -202 11 -418 11 l-358 0 0
-760z m771 450 c28 -52 26 -166 -3 -210 -52 -76 -112 -92 -329 -88 l-144 3 0
50 0 50 48 3 47 3 0 95 0 94 150 0 150 0 0 36 0 36 31 -19 c18 -10 40 -34 50
-53z m87 -620 c23 -38 27 -56 27 -125 0 -69 -4 -86 -27 -125 -16 -28 -43 -55
-70 -70 -42 -24 -49 -25 -271 -28 l-228 -3 3 48 3 48 48 3 47 3 0 135 0 136
198 -4 199 -3 -8 32 -7 33 30 -18 c16 -9 42 -37 56 -62z"/>
<path d="M6060 1280 l0 -760 50 0 50 0 0 -45 0 -45 490 0 490 0 0 125 0 125
-45 0 -45 0 0 45 0 45 -346 0 -345 0 3 53 3 52 48 3 47 3 0 535 0 534 -50 0
-50 0 0 45 0 45 -150 0 -150 0 0 -760z"/>
<path d="M9845 637 c-15 -9 -232 -14 -794 -18 -642 -5 -775 -9 -782 -20 -5 -8
-9 -51 -9 -96 0 -78 1 -83 30 -112 17 -17 45 -33 63 -36 18 -3 353 -5 745 -3
l714 3 34 37 34 38 0 104 c0 58 -3 107 -8 110 -4 2 -16 -1 -27 -7z"/>
<path d="M548 613 l-338 -3 0 -91 c0 -110 14 -144 68 -159 26 -8 237 -10 688
-8 736 3 676 -4 710 84 16 42 17 154 1 170 -7 8 -644 11 -1129 7z"/>
</g>
</svg>
